<svg id="Layer_1" data-name="Layer 1" xmlns="http://www.w3.org/2000/svg" viewBox="0 0 158.56 166.62">
  <defs>
    <style>
      .cls-1 {
        fill: #231f20;
      }

      .cls-2 {
        fill: #fffefe;
      }
    </style>
  </defs>
  <title>triangle 1</title>
  <polygon class="cls-1" points="0 144.5 0 122.38 26.18 133.44 52.36 144.5 26.18 155.56 0 166.62 0 144.5"/>
  <path class="cls-2" d="M67.46,46.82A1.15,1.15,0,0,1,66.31,48H50.56a1.15,1.15,0,0,1-1.15-1.15V46.11A1.15,1.15,0,0,1,50.56,45H66.31a1.15,1.15,0,0,1,1.15,1.15v0.71Zm0,6A1.15,1.15,0,0,1,66.31,54H50.56a1.15,1.15,0,0,1-1.15-1.15V52.12A1.15,1.15,0,0,1,50.56,51H66.31a1.15,1.15,0,0,1,1.15,1.15v0.71Zm0,6A1.15,1.15,0,0,1,66.31,60H50.56a1.15,1.15,0,0,1-1.15-1.15V58.14A1.15,1.15,0,0,1,50.56,57H66.31a1.15,1.15,0,0,1,1.15,1.15v0.71Z" transform="translate(-44.44 91)"/>
  <text x="-44.44" y="91"/></svg>
