<?xml version="1.0" encoding="utf-8"?>
<!-- Generator: Adobe Illustrator 19.2.0, SVG Export Plug-In . SVG Version: 6.00 Build 0)  -->
<svg version="1.1" id="Layer_1" xmlns="http://www.w3.org/2000/svg" xmlns:xlink="http://www.w3.org/1999/xlink" x="0px" y="0px"
	 viewBox="0 0 52.4 44.2" style="enable-background:new 0 0 52.4 44.2;" xml:space="preserve">
<style type="text/css">
	.st0{fill:#FFFEFE;}
</style>
<polygon points="0,22.1 0,0 26.2,11.1 52.4,22.1 26.2,33.2 0,44.2 "/>
    <polygon points="0,22.1 0,0 26.2,11.1 52.4,22.1 26.2,33.2 0,44.2 "/>
    <polygon points="0,22.1 0,0 26.2,11.1 52.4,22.1 26.2,33.2 0,44.2 "/>
    <polygon points="0,22.1 0,0 26.2,11.1 52.4,22.1 26.2,33.2 0,44.2 "/>
    <polygon points="0,22.1 0,0 26.2,11.1 52.4,22.1 26.2,33.2 0,44.2 "/>
<g>
	<path class="st0" d="M23,15.4c0,0.6-0.5,1.1-1.1,1.1H6.1c-0.6,0-1.1-0.5-1.1-1.1v-0.7c0-0.6,0.5-1.1,1.1-1.1h15.8
		c0.6,0,1.1,0.5,1.1,1.1V15.4z M23,21.5c0,0.6-0.5,1.1-1.1,1.1H6.1c-0.6,0-1.1-0.5-1.1-1.1v-0.7c0-0.6,0.5-1.1,1.1-1.1h15.8
		c0.6,0,1.1,0.5,1.1,1.1V21.5z M23,27.5c0,0.6-0.5,1.1-1.1,1.1H6.1c-0.6,0-1.1-0.5-1.1-1.1v-0.7c0-0.6,0.5-1.1,1.1-1.1h15.8
		c0.6,0,1.1,0.5,1.1,1.1V27.5z"/>
</g>
</svg>
