<svg id="Layer_1" data-name="Layer 1" xmlns="http://www.w3.org/2000/svg" viewBox="0 0 52.36 55.53">
  <defs>
    <style>
      .cls-1 {
        fill: #231f20;
      }

      .cls-2 {
        fill: #939598;
      }
    </style>
  </defs>
  <title>triangle_final</title>
  <polygon class="cls-1" points="0 27.77 0 0 26.18 13.88 52.36 27.77 26.18 41.65 0 55.53 0 27.77"/>
  <path class="cls-2" d="M24.72,21.56a1.06,1.06,0,0,1-1.06,1.06H9.19a1.06,1.06,0,0,1-1.06-1.06V20.91a1.06,1.06,0,0,1,1.06-1.06H23.66a1.06,1.06,0,0,1,1.06,1.06v0.65Zm0,6.53a1.06,1.06,0,0,1-1.06,1.06H9.19a1.06,1.06,0,0,1-1.06-1.06V27.44a1.06,1.06,0,0,1,1.06-1.06H23.66a1.06,1.06,0,0,1,1.06,1.06v0.65Zm0,6.53a1.06,1.06,0,0,1-1.06,1.06H9.19a1.06,1.06,0,0,1-1.06-1.06V34a1.06,1.06,0,0,1,1.06-1.06H23.66A1.06,1.06,0,0,1,24.72,34v0.65Z" transform="translate(0)"/>
</svg>
